<svg viewBox="0 0 1024 1024" version="1.1" xmlns="http://www.w3.org/2000/svg" width="200" height="200"><path d="M512 1024C230.4 1024 0 793.6 0 512S230.4 0 512 0s512 230.4 512 512-230.4 512-512 512z m0-960C265.6 64 64 265.6 64 512s201.6 448 448 448 448-201.6 448-448S758.4 64 512 64z" fill="#ff7171" p-id="1618"></path><path d="M512 304c9.6 0 16 6.4 16 16v256c0 9.6-6.4 16-16 16s-16-6.4-16-16v-256c0-9.6 6.4-16 16-16z" fill="#ff7171" p-id="1619"></path><path d="M512 608c-19.2 0-32-12.8-32-32v-256c0-19.2 12.8-32 32-32s32 12.8 32 32v256c0 19.2-12.8 32-32 32z m0-304v16-16z" fill="#ff7171" p-id="1620"></path><path d="M646.4 662.4c-3.2 6.4-12.8 9.6-22.4 6.4l-108.8-67.2c-6.4-3.2-9.6-12.8-6.4-22.4 3.2-6.4 12.8-9.6 22.4-6.4L640 640c9.6 3.2 12.8 16 6.4 22.4z" fill="#ff7171" p-id="1621"></path><path d="M633.6 684.8c-6.4 0-12.8 0-16-3.2l-108.8-67.2c-16-9.6-19.2-28.8-9.6-44.8 9.6-16 28.8-19.2 44.8-9.6l108.8 67.2c16 9.6 19.2 28.8 9.6 44.8-6.4 9.6-19.2 12.8-28.8 12.8z m-108.8-96l124.8 73.6-12.8-9.6-112-64z" fill="#ff7171" p-id="1622"></path></svg>
